STARTFONT 2.1
COMMENT Exported by Fony v1.4.6
FONT Fixed
SIZE 32 100 100
FONTBOUNDINGBOX 18 31 0 -2
STARTPROPERTIES 6
COPYRIGHT "Public domain terminal emulator font.  Share and enjoy. original font -Misc-Fixed-Medium-R-SemiCondensed--12-110-75-75-C-60-ISO10646-1"
RESOLUTION_X 100
RESOLUTION_Y 100
FONT_ASCENT 30
FONT_DESCENT 2
DEFAULT_CHAR 0
ENDPROPERTIES
CHARS 256
STARTCHAR 000
ENCODING 0
SWIDTH 792 0
DWIDTH 11 0
BBX 0 0 0 0
BITMAP
ENDCHAR
STARTCHAR 001
ENCODING 1
SWIDTH 1152 0
DWIDTH 16 0
BBX 14 21 0 3
BITMAP
1C00
1C00
FFE0
FFE0
FFE0
FC1C
FC1C
FC1C
E01C
E01C
E01C
E01C
E01C
E0FC
E0FC
E0FC
1FFC
1FFC
00E0
00E0
00E0
ENDCHAR
STARTCHAR 002
ENCODING 2
SWIDTH 1152 0
DWIDTH 16 0
BBX 14 21 0 3
BITMAP
FC00
FC00
FFFC
FFFC
FFFC
E01C
E01C
E01C
E01C
E01C
E01C
E01C
E01C
E01C
E01C
E01C
E01C
E01C
FFFC
FFFC
FFFC
ENDCHAR
STARTCHAR 003
ENCODING 3
SWIDTH 1152 0
DWIDTH 16 0
BBX 14 15 0 5
BITMAP
0200
0300
0380
03C0
03E0
03F0
FFF8
FFFC
FFF8
03F0
03E0
03C0
0380
0300
0200
ENDCHAR
STARTCHAR 004
ENCODING 4
SWIDTH 1152 0
DWIDTH 16 0
BBX 14 22 0 3
BITMAP
0300
0780
0FC0
1FE0
3FF0
7FF8
FFFC
FFFC
FFFC
0300
0300
0300
0300
0300
0300
0300
0300
0300
0300
FF00
FF00
FF00
ENDCHAR
STARTCHAR 005
ENCODING 5
SWIDTH 1152 0
DWIDTH 16 0
BBX 14 24 0 0
BITMAP
0300
0300
1FE0
1FE0
1FE0
E31C
E31C
E31C
E31C
E31C
E3FC
E3FC
E3FC
E01C
E01C
E01C
E01C
E01C
1FE0
1FE0
1FE0
0300
0300
0300
ENDCHAR
STARTCHAR 006
ENCODING 6
SWIDTH 1296 0
DWIDTH 18 0
BBX 16 13 0 6
BITMAP
F9E0
F9F0
7CF8
3E7C
1F3E
0F9F
078F
0F9F
1F3E
3E7C
7EF8
FDF0
F9E0
ENDCHAR
STARTCHAR 007
ENCODING 7
SWIDTH 1152 0
DWIDTH 16 0
BBX 14 24 0 0
BITMAP
FFFC
FFFC
E31C
E31C
E31C
E01C
E01C
E01C
E01C
E01C
E01C
E01C
E01C
E01C
E01C
E01C
E01C
E01C
E31C
E31C
E31C
FFFC
FFFC
FFFC
ENDCHAR
STARTCHAR 008
ENCODING 8
SWIDTH 1152 0
DWIDTH 16 0
BBX 14 26 0 -2
BITMAP
0780
0FC0
1CE0
1CE0
1CE0
1CE0
1CE0
1CE0
1CE0
1CE0
1CE0
3CF0
7CF8
F03C
E01C
E01C
E31C
E31C
E31C
E31C
E31C
E01C
E01C
F03C
7FF8
3FF0
ENDCHAR
STARTCHAR 009
ENCODING 9
SWIDTH 1152 0
DWIDTH 16 0
BBX 7 7 1 12
BITMAP
38
7C
EE
C6
EE
7C
38
ENDCHAR
STARTCHAR 010
ENCODING 10
SWIDTH 792 0
DWIDTH 11 0
BBX 0 0 0 0
BITMAP
ENDCHAR
STARTCHAR 011
ENCODING 11
SWIDTH 792 0
DWIDTH 11 0
BBX 0 0 0 0
BITMAP
ENDCHAR
STARTCHAR 012
ENCODING 12
SWIDTH 792 0
DWIDTH 11 0
BBX 0 0 0 0
BITMAP
ENDCHAR
STARTCHAR 013
ENCODING 13
SWIDTH 792 0
DWIDTH 11 0
BBX 0 0 0 0
BITMAP
ENDCHAR
STARTCHAR 014
ENCODING 14
SWIDTH 792 0
DWIDTH 11 0
BBX 0 0 0 0
BITMAP
ENDCHAR
STARTCHAR 015
ENCODING 15
SWIDTH 792 0
DWIDTH 11 0
BBX 0 0 0 0
BITMAP
ENDCHAR
STARTCHAR 016
ENCODING 16
SWIDTH 792 0
DWIDTH 11 0
BBX 0 0 0 0
BITMAP
ENDCHAR
STARTCHAR 017
ENCODING 17
SWIDTH 792 0
DWIDTH 11 0
BBX 0 0 0 0
BITMAP
ENDCHAR
STARTCHAR 018
ENCODING 18
SWIDTH 792 0
DWIDTH 11 0
BBX 0 0 0 0
BITMAP
ENDCHAR
STARTCHAR 019
ENCODING 19
SWIDTH 792 0
DWIDTH 11 0
BBX 0 0 0 0
BITMAP
ENDCHAR
STARTCHAR 020
ENCODING 20
SWIDTH 792 0
DWIDTH 11 0
BBX 0 0 0 0
BITMAP
ENDCHAR
STARTCHAR 021
ENCODING 21
SWIDTH 792 0
DWIDTH 11 0
BBX 0 0 0 0
BITMAP
ENDCHAR
STARTCHAR 022
ENCODING 22
SWIDTH 792 0
DWIDTH 11 0
BBX 0 0 0 0
BITMAP
ENDCHAR
STARTCHAR 023
ENCODING 23
SWIDTH 792 0
DWIDTH 11 0
BBX 0 0 0 0
BITMAP
ENDCHAR
STARTCHAR 024
ENCODING 24
SWIDTH 792 0
DWIDTH 11 0
BBX 0 0 0 0
BITMAP
ENDCHAR
STARTCHAR 025
ENCODING 25
SWIDTH 792 0
DWIDTH 11 0
BBX 0 0 0 0
BITMAP
ENDCHAR
STARTCHAR 026
ENCODING 26
SWIDTH 792 0
DWIDTH 11 0
BBX 0 0 0 0
BITMAP
ENDCHAR
STARTCHAR 027
ENCODING 27
SWIDTH 792 0
DWIDTH 11 0
BBX 0 0 0 0
BITMAP
ENDCHAR
STARTCHAR 028
ENCODING 28
SWIDTH 792 0
DWIDTH 11 0
BBX 0 0 0 0
BITMAP
ENDCHAR
STARTCHAR 029
ENCODING 29
SWIDTH 792 0
DWIDTH 11 0
BBX 0 0 0 0
BITMAP
ENDCHAR
STARTCHAR 030
ENCODING 30
SWIDTH 792 0
DWIDTH 11 0
BBX 0 0 0 0
BITMAP
ENDCHAR
STARTCHAR 031
ENCODING 31
SWIDTH 792 0
DWIDTH 11 0
BBX 0 0 0 0
BITMAP
ENDCHAR
STARTCHAR 032
ENCODING 32
SWIDTH 1152 0
DWIDTH 16 0
BBX 0 0 0 0
BITMAP
ENDCHAR
STARTCHAR 033
ENCODING 33
SWIDTH 1152 0
DWIDTH 16 0
BBX 2 19 6 3
BITMAP
C0
C0
C0
C0
C0
C0
C0
C0
C0
C0
C0
C0
C0
C0
00
00
C0
C0
C0
ENDCHAR
STARTCHAR 034
ENCODING 34
SWIDTH 1152 0
DWIDTH 16 0
BBX 8 8 3 16
BITMAP
E7
E7
E7
E7
E7
E7
E7
E7
ENDCHAR
STARTCHAR 035
ENCODING 35
SWIDTH 1152 0
DWIDTH 16 0
BBX 14 16 0 3
BITMAP
1CE0
1CE0
1CE0
FFFC
FFFC
1CE0
1CE0
1CE0
1CE0
1CE0
1CE0
FFFC
FFFC
1CE0
1CE0
1CE0
ENDCHAR
STARTCHAR 036
ENCODING 36
SWIDTH 1152 0
DWIDTH 16 0
BBX 14 25 0 0
BITMAP
0300
0300
0300
1FE0
3FF0
7FF8
F33C
E31C
E31C
E300
F300
7FE0
3FF0
1FF8
033C
031C
031C
E31C
F33C
7FF8
3FF0
1FE0
0300
0300
0300
ENDCHAR
STARTCHAR 037
ENCODING 37
SWIDTH 1152 0
DWIDTH 16 0
BBX 14 19 0 3
BITMAP
F81C
F81C
F81C
F81C
F83C
0078
00F0
01E0
03C0
0780
0F00
1E00
3C00
7800
F07C
E07C
E07C
E07C
E07C
ENDCHAR
STARTCHAR 038
ENCODING 38
SWIDTH 1152 0
DWIDTH 16 0
BBX 14 19 0 3
BITMAP
1C00
3E00
7E00
F700
E300
E300
E300
F700
7E00
3E00
3E00
771C
E3BC
E1FC
E0F0
F1F0
7FFC
3FBC
1F1C
ENDCHAR
STARTCHAR 039
ENCODING 39
SWIDTH 1152 0
DWIDTH 16 0
BBX 2 8 6 16
BITMAP
C0
C0
C0
C0
C0
C0
C0
C0
ENDCHAR
STARTCHAR 040
ENCODING 40
SWIDTH 1152 0
DWIDTH 16 0
BBX 7 24 4 0
BITMAP
0E
1E
38
30
60
60
60
60
E0
C0
C0
C0
C0
C0
C0
E0
60
60
60
30
38
18
0E
0E
ENDCHAR
STARTCHAR 041
ENCODING 41
SWIDTH 1152 0
DWIDTH 16 0
BBX 7 24 5 0
BITMAP
E0
F0
38
18
0C
0C
0C
0C
0E
06
06
06
06
06
06
0E
0C
0C
0C
18
38
30
E0
E0
ENDCHAR
STARTCHAR 042
ENCODING 42
SWIDTH 1152 0
DWIDTH 16 0
BBX 14 19 0 3
BITMAP
0300
0300
0300
E31C
E31C
F33C
3FF0
1FE0
0300
0300
0300
1FE0
1FE0
3FF0
F33C
E31C
0300
0300
0300
ENDCHAR
STARTCHAR 043
ENCODING 43
SWIDTH 1152 0
DWIDTH 16 0
BBX 14 13 0 6
BITMAP
0300
0300
0300
0300
0300
FFFC
FFFC
FFFC
0300
0300
0300
0300
0300
ENDCHAR
STARTCHAR 044
ENCODING 44
SWIDTH 1152 0
DWIDTH 16 0
BBX 5 8 3 0
BITMAP
F8
F8
18
18
38
F0
E0
C0
ENDCHAR
STARTCHAR 045
ENCODING 45
SWIDTH 1152 0
DWIDTH 16 0
BBX 14 3 0 11
BITMAP
FFFC
FFFC
FFFC
ENDCHAR
STARTCHAR 046
ENCODING 46
SWIDTH 1152 0
DWIDTH 16 0
BBX 5 5 3 3
BITMAP
F8
F8
F8
F8
F8
ENDCHAR
STARTCHAR 047
ENCODING 47
SWIDTH 1152 0
DWIDTH 16 0
BBX 14 19 0 3
BITMAP
001C
001C
0038
0070
00F0
00E0
01C0
03C0
0380
0700
0F00
0E00
1C00
1C00
3800
7000
F000
E000
C000
ENDCHAR
STARTCHAR 048
ENCODING 48
SWIDTH 1152 0
DWIDTH 16 0
BBX 14 19 0 3
BITMAP
1FE0
3FF0
7FF8
F03C
E01C
E01C
E0FC
E1FC
E3DC
E79C
EF1C
FE1C
FC1C
F81C
E01C
F03C
7FF8
3FF0
1FE0
ENDCHAR
STARTCHAR 049
ENCODING 49
SWIDTH 1152 0
DWIDTH 16 0
BBX 8 19 3 3
BITMAP
18
38
78
F8
F8
F8
18
18
18
18
18
18
18
18
18
18
FF
FF
FF
ENDCHAR
STARTCHAR 050
ENCODING 50
SWIDTH 1152 0
DWIDTH 16 0
BBX 14 19 0 3
BITMAP
1FE0
3FF0
7FF8
F03C
E01C
E01C
001C
003C
0078
00F0
01E0
03C0
0780
0F00
1E00
3C00
FFFC
FFFC
FFFC
ENDCHAR
STARTCHAR 051
ENCODING 51
SWIDTH 1152 0
DWIDTH 16 0
BBX 14 19 0 3
BITMAP
FFFC
FFFC
FFFC
001C
001C
003C
0078
00F0
01E0
03F0
03F8
003C
001C
001C
E01C
F03C
7FF8
3FF0
1FE0
ENDCHAR
STARTCHAR 052
ENCODING 52
SWIDTH 1152 0
DWIDTH 16 0
BBX 14 19 0 3
BITMAP
00E0
01E0
03E0
07E0
0FE0
1EE0
3CE0
78E0
F0E0
E0E0
E0E0
FFFC
FFFC
FFFC
00E0
00E0
00E0
00E0
00E0
ENDCHAR
STARTCHAR 053
ENCODING 53
SWIDTH 1152 0
DWIDTH 16 0
BBX 14 19 0 3
BITMAP
FFFC
FFFC
FFFC
E000
E000
E000
FFF0
FFF8
003C
001C
001C
001C
001C
001C
E01C
F03C
7FF8
3FF0
1FE0
ENDCHAR
STARTCHAR 054
ENCODING 54
SWIDTH 1152 0
DWIDTH 16 0
BBX 14 19 0 3
BITMAP
03E0
07E0
0FE0
1E00
3C00
7800
F000
E000
FFE0
FFF0
FFF8
E03C
E01C
E01C
E01C
F03C
7FF8
3FF0
1FE0
ENDCHAR
STARTCHAR 055
ENCODING 55
SWIDTH 1152 0
DWIDTH 16 0
BBX 14 19 0 3
BITMAP
FFFC
FFFC
FFFC
001C
001C
003C
0078
00F0
01E0
03C0
0380
0380
0380
0380
0380
0380
0380
0380
0380
ENDCHAR
STARTCHAR 056
ENCODING 56
SWIDTH 1152 0
DWIDTH 16 0
BBX 14 19 0 3
BITMAP
1FE0
3FF0
7FF8
F03C
E01C
E01C
E01C
F03C
7FF8
3FF0
7FF8
F03C
E01C
E01C
E01C
F03C
7FF8
3FF0
1FE0
ENDCHAR
STARTCHAR 057
ENCODING 57
SWIDTH 1152 0
DWIDTH 16 0
BBX 14 19 0 3
BITMAP
1FE0
3FF0
7FF8
F03C
E01C
E01C
E01C
F01C
7FFC
3FFC
1FFC
001C
001C
003C
0078
00F0
1FE0
1FC0
1F80
ENDCHAR
STARTCHAR 058
ENCODING 58
SWIDTH 1152 0
DWIDTH 16 0
BBX 5 13 3 3
BITMAP
F8
F8
F8
F8
F8
00
00
00
F8
F8
F8
F8
F8
ENDCHAR
STARTCHAR 059
ENCODING 59
SWIDTH 1152 0
DWIDTH 16 0
BBX 5 16 3 0
BITMAP
F8
F8
F8
F8
F8
00
00
00
F8
F8
F8
18
18
F8
F0
E0
ENDCHAR
STARTCHAR 060
ENCODING 60
SWIDTH 1152 0
DWIDTH 16 0
BBX 8 14 3 5
BITMAP
07
0F
1F
3C
78
F0
E0
E0
F0
78
3C
1F
0F
07
ENDCHAR
STARTCHAR 061
ENCODING 61
SWIDTH 1152 0
DWIDTH 16 0
BBX 14 9 0 8
BITMAP
FFFC
FFFC
FFFC
0000
0000
0000
FFFC
FFFC
FFFC
ENDCHAR
STARTCHAR 062
ENCODING 62
SWIDTH 1152 0
DWIDTH 16 0
BBX 8 14 3 5
BITMAP
E0
F0
F8
7C
3E
1F
0F
0F
1F
3E
7C
F8
F0
E0
ENDCHAR
STARTCHAR 063
ENCODING 63
SWIDTH 1152 0
DWIDTH 16 0
BBX 14 19 0 3
BITMAP
1FE0
3FF0
7FF8
F03C
E01C
E03C
0078
00F0
01E0
03C0
0380
0380
0380
0380
0000
0000
0380
0380
0380
ENDCHAR
STARTCHAR 064
ENCODING 64
SWIDTH 1152 0
DWIDTH 16 0
BBX 14 19 0 3
BITMAP
1FE0
3FF0
7FF8
F03C
E01C
E01C
E1FC
E3FC
E31C
E31C
E31C
E3FC
E3FC
E1F8
E000
F000
7FE0
3FE0
1FE0
ENDCHAR
STARTCHAR 065
ENCODING 65
SWIDTH 1152 0
DWIDTH 16 0
BBX 14 19 0 3
BITMAP
1FE0
3FF0
7FF8
F03C
E01C
E01C
E01C
E01C
FFFC
FFFC
FFFC
E01C
E01C
E01C
E01C
E01C
E01C
E01C
E01C
ENDCHAR
STARTCHAR 066
ENCODING 66
SWIDTH 1152 0
DWIDTH 16 0
BBX 14 19 0 3
BITMAP
FFE0
FFF0
FFF8
1C3C
1C1C
1C1C
1C1C
1C3C
1FF8
1FF0
1FF8
1C3C
1C1C
1C1C
1C1C
1C3C
FFF8
FFF0
FFE0
ENDCHAR
STARTCHAR 067
ENCODING 67
SWIDTH 1152 0
DWIDTH 16 0
BBX 14 19 0 3
BITMAP
1FE0
3FF0
7FF8
F03C
E01C
E01C
E000
E000
E000
E000
E000
E000
E000
E000
E01C
F03C
7FF8
3FF0
1FE0
ENDCHAR
STARTCHAR 068
ENCODING 68
SWIDTH 1152 0
DWIDTH 16 0
BBX 14 19 0 3
BITMAP
FFE0
FFF0
FFF8
1C3C
1C1C
1C1C
1C1C
1C1C
1C1C
1C1C
1C1C
1C1C
1C1C
1C1C
1C1C
1C3C
FFF8
FFF0
FFE0
ENDCHAR
STARTCHAR 069
ENCODING 69
SWIDTH 1152 0
DWIDTH 16 0
BBX 14 19 0 3
BITMAP
FFFC
FFFC
FFFC
E000
E000
E000
E000
E000
FFE0
FFE0
FFE0
E000
E000
E000
E000
E000
FFFC
FFFC
FFFC
ENDCHAR
STARTCHAR 070
ENCODING 70
SWIDTH 1152 0
DWIDTH 16 0
BBX 14 19 0 3
BITMAP
FFFC
FFFC
FFFC
E000
E000
E000
E000
E000
FFE0
FFE0
FFE0
E000
E000
E000
E000
E000
E000
E000
E000
ENDCHAR
STARTCHAR 071
ENCODING 71
SWIDTH 1152 0
DWIDTH 16 0
BBX 14 19 0 3
BITMAP
1FE0
3FF0
7FF8
F03C
E01C
E01C
E000
E000
E000
E000
E000
E0FC
E0FC
E0FC
E01C
F03C
7FF8
3FF0
1FE0
ENDCHAR
STARTCHAR 072
ENCODING 72
SWIDTH 1152 0
DWIDTH 16 0
BBX 14 19 0 3
BITMAP
E01C
E01C
E01C
E01C
E01C
E01C
E01C
E01C
FFFC
FFFC
FFFC
E01C
E01C
E01C
E01C
E01C
E01C
E01C
E01C
ENDCHAR
STARTCHAR 073
ENCODING 73
SWIDTH 1152 0
DWIDTH 16 0
BBX 8 19 3 3
BITMAP
FF
FF
FF
18
18
18
18
18
18
18
18
18
18
18
18
18
FF
FF
FF
ENDCHAR
STARTCHAR 074
ENCODING 74
SWIDTH 1152 0
DWIDTH 16 0
BBX 14 19 0 3
BITMAP
07FC
07FC
07FC
00E0
00E0
00E0
00E0
00E0
00E0
00E0
00E0
00E0
00E0
00E0
E0E0
F1E0
7FC0
3F80
1F00
ENDCHAR
STARTCHAR 075
ENCODING 75
SWIDTH 1152 0
DWIDTH 16 0
BBX 14 19 0 3
BITMAP
E01C
E03C
E078
E0F0
E1E0
E3C0
E780
EF00
FE00
FC00
FE00
EF00
E780
E3C0
E1E0
E0F0
E078
E03C
E01C
ENDCHAR
STARTCHAR 076
ENCODING 76
SWIDTH 1152 0
DWIDTH 16 0
BBX 14 19 0 3
BITMAP
E000
E000
E000
E000
E000
E000
E000
E000
E000
E000
E000
E000
E000
E000
E000
E000
FFFC
FFFC
FFFC
ENDCHAR
STARTCHAR 077
ENCODING 77
SWIDTH 1152 0
DWIDTH 16 0
BBX 14 19 0 3
BITMAP
E01C
F03C
F87C
FCFC
FFFC
EFDC
E79C
E31C
E01C
E01C
E01C
E01C
E01C
E01C
E01C
E01C
E01C
E01C
E01C
ENDCHAR
STARTCHAR 078
ENCODING 78
SWIDTH 1152 0
DWIDTH 16 0
BBX 14 19 0 3
BITMAP
E01C
E01C
E01C
E01C
F01C
F81C
FC1C
FE1C
EF1C
E79C
E3DC
E1FC
E0FC
E07C
E03C
E01C
E01C
E01C
E01C
ENDCHAR
STARTCHAR 079
ENCODING 79
SWIDTH 1152 0
DWIDTH 16 0
BBX 14 19 0 3
BITMAP
1FE0
3FF0
7FF8
F03C
E01C
E01C
E01C
E01C
E01C
E01C
E01C
E01C
E01C
E01C
E01C
F03C
7FF8
3FF0
1FE0
ENDCHAR
STARTCHAR 080
ENCODING 80
SWIDTH 1152 0
DWIDTH 16 0
BBX 14 19 0 3
BITMAP
FFE0
FFF0
FFF8
E03C
E01C
E01C
E01C
E03C
FFF8
FFF0
FFE0
E000
E000
E000
E000
E000
E000
E000
E000
ENDCHAR
STARTCHAR 081
ENCODING 81
SWIDTH 1152 0
DWIDTH 16 0
BBX 14 19 0 3
BITMAP
1FE0
3FF0
7FF8
F03C
E01C
E01C
E01C
E01C
E01C
E01C
E01C
E01C
E19C
E1DC
E1EC
F0F0
7F78
3FBC
1F9C
ENDCHAR
STARTCHAR 082
ENCODING 82
SWIDTH 1152 0
DWIDTH 16 0
BBX 14 19 0 3
BITMAP
FFE0
FFF0
FFF8
E03C
E01C
E01C
E01C
E03C
FFF8
FFF0
FFE0
E700
E780
E3C0
E1E0
E0F0
E078
E03C
E01C
ENDCHAR
STARTCHAR 083
ENCODING 83
SWIDTH 1152 0
DWIDTH 16 0
BBX 14 19 0 3
BITMAP
1FE0
3FF0
7FF8
F03C
E01C
E01C
E000
F000
7FE0
3FF0
1FF8
003C
001C
001C
E01C
F03C
7FF8
3FF0
1FE0
ENDCHAR
STARTCHAR 084
ENCODING 84
SWIDTH 1152 0
DWIDTH 16 0
BBX 14 19 0 3
BITMAP
FFFC
FFFC
FFFC
0300
0300
0300
0300
0300
0300
0300
0300
0300
0300
0300
0300
0300
0300
0300
0300
ENDCHAR
STARTCHAR 085
ENCODING 85
SWIDTH 1152 0
DWIDTH 16 0
BBX 14 19 0 3
BITMAP
E01C
E01C
E01C
E01C
E01C
E01C
E01C
E01C
E01C
E01C
E01C
E01C
E01C
E01C
E01C
F03C
7FF8
3FF0
1FE0
ENDCHAR
STARTCHAR 086
ENCODING 86
SWIDTH 1152 0
DWIDTH 16 0
BBX 14 19 0 3
BITMAP
E01C
E01C
E01C
E01C
E01C
E01C
E01C
E01C
E01C
E01C
F03C
7038
3878
3870
1CE0
1FE0
0FC0
0780
0300
ENDCHAR
STARTCHAR 087
ENCODING 87
SWIDTH 1152 0
DWIDTH 16 0
BBX 14 19 0 3
BITMAP
E01C
E01C
E01C
E01C
E01C
E01C
E01C
E01C
E01C
E01C
E01C
E79C
E79C
E79C
E79C
F7BC
7FF8
3FF0
1CE0
ENDCHAR
STARTCHAR 088
ENCODING 88
SWIDTH 1152 0
DWIDTH 16 0
BBX 14 19 0 3
BITMAP
E01C
E01C
E01C
E01C
F03C
7878
3CF0
1FE0
0FC0
07C0
0FC0
1FE0
3FF0
7CF8
F87C
F03C
E01C
E01C
E01C
ENDCHAR
STARTCHAR 089
ENCODING 89
SWIDTH 1152 0
DWIDTH 16 0
BBX 15 19 0 3
BITMAP
E00E
E00E
E00E
E00E
E00E
E00E
701C
3838
1FF0
0FE0
07C0
0380
0380
0380
0380
0380
0380
0380
0380
ENDCHAR
STARTCHAR 090
ENCODING 90
SWIDTH 1152 0
DWIDTH 16 0
BBX 14 19 0 3
BITMAP
FFFC
FFFC
FFFC
001C
003C
0078
00F0
01E0
03C0
0780
0F00
1E00
3C00
7800
F000
E000
FFFC
FFFC
FFFC
ENDCHAR
STARTCHAR 091
ENCODING 91
SWIDTH 1152 0
DWIDTH 16 0
BBX 8 24 3 0
BITMAP
FF
FF
E0
E0
E0
E0
E0
E0
E0
E0
E0
E0
E0
E0
E0
E0
E0
E0
E0
E0
E0
FF
FF
FF
ENDCHAR
STARTCHAR 092
ENCODING 92
SWIDTH 1152 0
DWIDTH 16 0
BBX 14 19 0 3
BITMAP
E000
F000
F000
7800
3C00
1C00
1E00
0F00
0780
0380
03C0
01C0
01E0
00E0
00F0
0078
003C
001C
001C
ENDCHAR
STARTCHAR 093
ENCODING 93
SWIDTH 1152 0
DWIDTH 16 0
BBX 8 25 3 0
BITMAP
FF
FF
FF
07
07
07
07
07
07
07
07
07
07
07
07
07
07
07
07
07
07
07
FF
FF
FF
ENDCHAR
STARTCHAR 094
ENCODING 94
SWIDTH 1152 0
DWIDTH 16 0
BBX 14 8 0 16
BITMAP
0780
0FC0
1FE0
3FF0
7CF8
F87C
F03C
E01C
ENDCHAR
STARTCHAR 095
ENCODING 95
SWIDTH 1152 0
DWIDTH 16 0
BBX 14 3 0 -2
BITMAP
FFFC
FFFC
FFFC
ENDCHAR
STARTCHAR 096
ENCODING 96
SWIDTH 1152 0
DWIDTH 16 0
BBX 8 8 3 16
BITMAP
E0
F0
78
3C
1E
0F
07
03
ENDCHAR
STARTCHAR 097
ENCODING 97
SWIDTH 1152 0
DWIDTH 16 0
BBX 14 14 0 3
BITMAP
1FE0
1FF0
1FF8
003C
001C
001C
1FFC
3FFC
7FFC
E01C
E01C
7FFC
3FFC
1FFC
ENDCHAR
STARTCHAR 098
ENCODING 98
SWIDTH 1152 0
DWIDTH 16 0
BBX 14 19 0 3
BITMAP
E000
E000
E000
E000
E000
FFE0
FFF0
FFF8
E03C
E01C
E01C
E01C
E01C
E01C
E01C
E03C
FFF8
FFF0
FFE0
ENDCHAR
STARTCHAR 099
ENCODING 99
SWIDTH 1152 0
DWIDTH 16 0
BBX 14 14 0 3
BITMAP
1FE0
3FE0
7FE0
F000
E000
E000
E000
E000
E000
E01C
F03C
7FF8
3FF0
1FE0
ENDCHAR
STARTCHAR 100
ENCODING 100
SWIDTH 1152 0
DWIDTH 16 0
BBX 14 19 0 3
BITMAP
001C
001C
001C
001C
001C
1FFC
3FFC
7FFC
E01C
E01C
E01C
E01C
E01C
E01C
E01C
F01C
7FFC
3FFC
1FFC
ENDCHAR
STARTCHAR 101
ENCODING 101
SWIDTH 1152 0
DWIDTH 16 0
BBX 14 14 0 3
BITMAP
1FE0
3FF0
7FF8
F03C
E01C
E03C
FFF8
FFF0
FFE0
E000
F000
7FE0
3FE0
1FE0
ENDCHAR
STARTCHAR 102
ENCODING 102
SWIDTH 1152 0
DWIDTH 16 0
BBX 14 19 0 3
BITMAP
03E0
07F0
0FF8
1E3C
1C1C
1C1C
1C00
1C00
FF80
FF80
FF80
1C00
1C00
1C00
1C00
1C00
1C00
1C00
1C00
ENDCHAR
STARTCHAR 103
ENCODING 103
SWIDTH 1152 0
DWIDTH 16 0
BBX 14 19 0 -2
BITMAP
1FE0
3FF0
7FF8
F01C
E01C
E01C
E01C
E01C
E01C
E01C
F01C
7FFC
3FFC
1FFC
001C
001C
003C
1FF8
1FF0
ENDCHAR
STARTCHAR 104
ENCODING 104
SWIDTH 1152 0
DWIDTH 16 0
BBX 14 19 0 3
BITMAP
E000
E000
E000
E000
E000
FFE0
FFF0
FFF8
E03C
E01C
E01C
E01C
E01C
E01C
E01C
E01C
E01C
E01C
E01C
ENDCHAR
STARTCHAR 105
ENCODING 105
SWIDTH 1152 0
DWIDTH 16 0
BBX 9 19 3 3
BITMAP
1C00
1C00
1C00
0000
0000
FC00
FC00
FC00
1C00
1C00
1C00
1C00
1C00
1C00
1C00
1C00
FF80
FF80
FF80
ENDCHAR
STARTCHAR 106
ENCODING 106
SWIDTH 1152 0
DWIDTH 16 0
BBX 11 24 3 -2
BITMAP
00E0
00E0
00E0
0000
0000
07E0
07E0
07E0
00E0
00E0
00E0
00E0
00E0
00E0
00E0
00E0
00E0
00E0
00E0
E0E0
E0E0
F1E0
7FC0
3F80
ENDCHAR
STARTCHAR 107
ENCODING 107
SWIDTH 1152 0
DWIDTH 16 0
BBX 14 19 0 3
BITMAP
E000
E000
E000
E000
E000
E01C
E03C
E078
E0F0
E1E0
E3C0
FF80
FF80
FFC0
E1E0
E0F0
E078
E03C
E01C
ENDCHAR
STARTCHAR 108
ENCODING 108
SWIDTH 1152 0
DWIDTH 16 0
BBX 9 19 3 3
BITMAP
FC00
FC00
FC00
1C00
1C00
1C00
1C00
1C00
1C00
1C00
1C00
1C00
1C00
1C00
1C00
1C00
FF80
FF80
FF80
ENDCHAR
STARTCHAR 109
ENCODING 109
SWIDTH 1152 0
DWIDTH 16 0
BBX 14 13 0 3
BITMAP
FEF0
FFF8
E7BC
E31C
E31C
E31C
E31C
E31C
E31C
E31C
E31C
E31C
E31C
ENDCHAR
STARTCHAR 110
ENCODING 110
SWIDTH 1152 0
DWIDTH 16 0
BBX 14 13 0 3
BITMAP
E7F0
EFF8
FFFC
FC3C
F81C
F01C
E01C
E01C
E01C
E01C
E01C
E01C
E01C
ENDCHAR
STARTCHAR 111
ENCODING 111
SWIDTH 1152 0
DWIDTH 16 0
BBX 14 13 0 3
BITMAP
1FE0
3FF0
7FF8
F03C
E01C
E01C
E01C
E01C
E01C
F03C
7FF8
3FF0
1FE0
ENDCHAR
STARTCHAR 112
ENCODING 112
SWIDTH 1152 0
DWIDTH 16 0
BBX 14 18 0 -2
BITMAP
FFE0
FFF0
FFF8
E03C
E01C
E01C
E01C
E01C
E01C
E03C
FFF8
FFF0
FFE0
E000
E000
E000
E000
E000
ENDCHAR
STARTCHAR 113
ENCODING 113
SWIDTH 1152 0
DWIDTH 16 0
BBX 14 18 0 -2
BITMAP
1FFC
3FFC
7FFC
F01C
E01C
E01C
E01C
E01C
E01C
F01C
7FFC
3FFC
1FFC
001C
001C
001C
001C
001C
ENDCHAR
STARTCHAR 114
ENCODING 114
SWIDTH 1152 0
DWIDTH 16 0
BBX 14 13 0 3
BITMAP
E7F0
EFF8
FFFC
FC1C
F81C
F000
E000
E000
E000
E000
E000
E000
E000
ENDCHAR
STARTCHAR 115
ENCODING 115
SWIDTH 1152 0
DWIDTH 16 0
BBX 14 13 0 3
BITMAP
1FFC
3FFC
7FFC
E000
F000
7FE0
3FF0
1FF8
003C
001C
FFF8
FFF0
FFE0
ENDCHAR
STARTCHAR 116
ENCODING 116
SWIDTH 1152 0
DWIDTH 16 0
BBX 14 19 0 3
BITMAP
0700
0700
0700
0700
0700
FFFC
FFFC
FFFC
0700
0700
0700
0700
0700
0700
0700
0780
03FC
01FC
00FC
ENDCHAR
STARTCHAR 117
ENCODING 117
SWIDTH 1152 0
DWIDTH 16 0
BBX 14 13 0 3
BITMAP
E01C
E01C
E01C
E01C
E01C
E01C
E03C
E07C
E0FC
F1FC
7FDC
3F9C
1F1C
ENDCHAR
STARTCHAR 118
ENCODING 118
SWIDTH 1152 0
DWIDTH 16 0
BBX 14 13 0 3
BITMAP
E01C
E01C
E01C
E01C
E01C
E01C
E01C
F03C
7878
3CF0
1FE0
0FC0
0780
ENDCHAR
STARTCHAR 119
ENCODING 119
SWIDTH 1152 0
DWIDTH 16 0
BBX 14 13 0 3
BITMAP
E01C
E01C
E01C
E01C
E01C
E31C
E31C
E31C
E31C
F7BC
7FF8
3FF0
1CE0
ENDCHAR
STARTCHAR 120
ENCODING 120
SWIDTH 1152 0
DWIDTH 16 0
BBX 14 13 0 3
BITMAP
E01C
F03C
7878
3CF0
1FE0
0FC0
0780
0FC0
1FE0
3CF0
7878
F03C
E01C
ENDCHAR
STARTCHAR 121
ENCODING 121
SWIDTH 1152 0
DWIDTH 16 0
BBX 13 18 0 -2
BITMAP
E038
E038
E038
E038
E038
E038
E038
F078
78F0
3DE0
1FC0
0F80
0F00
1E00
3C00
7800
F000
E000
ENDCHAR
STARTCHAR 122
ENCODING 122
SWIDTH 1152 0
DWIDTH 16 0
BBX 14 13 0 3
BITMAP
FFFC
FFFC
FFFC
00F0
01E0
03C0
0780
0F00
1E00
3C00
FFFC
FFFC
FFFC
ENDCHAR
STARTCHAR 123
ENCODING 123
SWIDTH 1152 0
DWIDTH 16 0
BBX 8 24 3 0
BITMAP
07
0F
1C
18
18
18
18
18
38
38
E0
E0
E0
38
38
18
18
18
18
18
1C
0F
0F
07
ENDCHAR
STARTCHAR 124
ENCODING 124
SWIDTH 1152 0
DWIDTH 16 0
BBX 3 24 6 0
BITMAP
E0
E0
E0
E0
E0
E0
E0
E0
E0
E0
E0
E0
E0
E0
E0
E0
E0
E0
E0
E0
E0
E0
E0
E0
ENDCHAR
STARTCHAR 125
ENCODING 125
SWIDTH 1152 0
DWIDTH 16 0
BBX 8 24 3 0
BITMAP
E0
F0
38
18
18
18
18
18
18
1C
07
07
07
1C
18
18
18
18
18
18
38
F0
E0
E0
ENDCHAR
STARTCHAR 126
ENCODING 126
SWIDTH 1152 0
DWIDTH 16 0
BBX 14 8 0 8
BITMAP
3C1C
7E1C
F71C
E31C
E3BC
E1F0
E0E0
E0E0
ENDCHAR
STARTCHAR 127
ENCODING 127
SWIDTH 792 0
DWIDTH 11 0
BBX 0 0 0 0
BITMAP
ENDCHAR
STARTCHAR 128
ENCODING 128
SWIDTH 792 0
DWIDTH 11 0
BBX 0 0 0 0
BITMAP
ENDCHAR
STARTCHAR 129
ENCODING 129
SWIDTH 792 0
DWIDTH 11 0
BBX 0 0 0 0
BITMAP
ENDCHAR
STARTCHAR 130
ENCODING 130
SWIDTH 792 0
DWIDTH 11 0
BBX 0 0 0 0
BITMAP
ENDCHAR
STARTCHAR 131
ENCODING 131
SWIDTH 792 0
DWIDTH 11 0
BBX 0 0 0 0
BITMAP
ENDCHAR
STARTCHAR 132
ENCODING 132
SWIDTH 792 0
DWIDTH 11 0
BBX 0 0 0 0
BITMAP
ENDCHAR
STARTCHAR 133
ENCODING 133
SWIDTH 792 0
DWIDTH 11 0
BBX 0 0 0 0
BITMAP
ENDCHAR
STARTCHAR 134
ENCODING 134
SWIDTH 792 0
DWIDTH 11 0
BBX 0 0 0 0
BITMAP
ENDCHAR
STARTCHAR 135
ENCODING 135
SWIDTH 792 0
DWIDTH 11 0
BBX 0 0 0 0
BITMAP
ENDCHAR
STARTCHAR 136
ENCODING 136
SWIDTH 792 0
DWIDTH 11 0
BBX 0 0 0 0
BITMAP
ENDCHAR
STARTCHAR 137
ENCODING 137
SWIDTH 792 0
DWIDTH 11 0
BBX 0 0 0 0
BITMAP
ENDCHAR
STARTCHAR 138
ENCODING 138
SWIDTH 792 0
DWIDTH 11 0
BBX 0 0 0 0
BITMAP
ENDCHAR
STARTCHAR 139
ENCODING 139
SWIDTH 792 0
DWIDTH 11 0
BBX 0 0 0 0
BITMAP
ENDCHAR
STARTCHAR 140
ENCODING 140
SWIDTH 792 0
DWIDTH 11 0
BBX 0 0 0 0
BITMAP
ENDCHAR
STARTCHAR 141
ENCODING 141
SWIDTH 792 0
DWIDTH 11 0
BBX 0 0 0 0
BITMAP
ENDCHAR
STARTCHAR 142
ENCODING 142
SWIDTH 792 0
DWIDTH 11 0
BBX 0 0 0 0
BITMAP
ENDCHAR
STARTCHAR 143
ENCODING 143
SWIDTH 792 0
DWIDTH 11 0
BBX 0 0 0 0
BITMAP
ENDCHAR
STARTCHAR 144
ENCODING 144
SWIDTH 792 0
DWIDTH 11 0
BBX 0 0 0 0
BITMAP
ENDCHAR
STARTCHAR 145
ENCODING 145
SWIDTH 792 0
DWIDTH 11 0
BBX 0 0 0 0
BITMAP
ENDCHAR
STARTCHAR 146
ENCODING 146
SWIDTH 792 0
DWIDTH 11 0
BBX 0 0 0 0
BITMAP
ENDCHAR
STARTCHAR 147
ENCODING 147
SWIDTH 792 0
DWIDTH 11 0
BBX 0 0 0 0
BITMAP
ENDCHAR
STARTCHAR 148
ENCODING 148
SWIDTH 792 0
DWIDTH 11 0
BBX 0 0 0 0
BITMAP
ENDCHAR
STARTCHAR 149
ENCODING 149
SWIDTH 792 0
DWIDTH 11 0
BBX 0 0 0 0
BITMAP
ENDCHAR
STARTCHAR 150
ENCODING 150
SWIDTH 792 0
DWIDTH 11 0
BBX 0 0 0 0
BITMAP
ENDCHAR
STARTCHAR 151
ENCODING 151
SWIDTH 792 0
DWIDTH 11 0
BBX 0 0 0 0
BITMAP
ENDCHAR
STARTCHAR 152
ENCODING 152
SWIDTH 792 0
DWIDTH 11 0
BBX 0 0 0 0
BITMAP
ENDCHAR
STARTCHAR 153
ENCODING 153
SWIDTH 792 0
DWIDTH 11 0
BBX 0 0 0 0
BITMAP
ENDCHAR
STARTCHAR 154
ENCODING 154
SWIDTH 792 0
DWIDTH 11 0
BBX 0 0 0 0
BITMAP
ENDCHAR
STARTCHAR 155
ENCODING 155
SWIDTH 792 0
DWIDTH 11 0
BBX 0 0 0 0
BITMAP
ENDCHAR
STARTCHAR 156
ENCODING 156
SWIDTH 792 0
DWIDTH 11 0
BBX 0 0 0 0
BITMAP
ENDCHAR
STARTCHAR 157
ENCODING 157
SWIDTH 792 0
DWIDTH 11 0
BBX 0 0 0 0
BITMAP
ENDCHAR
STARTCHAR 158
ENCODING 158
SWIDTH 792 0
DWIDTH 11 0
BBX 0 0 0 0
BITMAP
ENDCHAR
STARTCHAR 159
ENCODING 159
SWIDTH 792 0
DWIDTH 11 0
BBX 0 0 0 0
BITMAP
ENDCHAR
STARTCHAR 160
ENCODING 160
SWIDTH 1152 0
DWIDTH 16 0
BBX 0 0 0 0
BITMAP
ENDCHAR
STARTCHAR 161
ENCODING 161
SWIDTH 1152 0
DWIDTH 16 0
BBX 2 19 6 3
BITMAP
C0
C0
C0
00
00
00
C0
C0
C0
C0
C0
C0
C0
C0
C0
C0
C0
C0
C0
ENDCHAR
STARTCHAR 162
ENCODING 162
SWIDTH 1152 0
DWIDTH 16 0
BBX 14 19 0 0
BITMAP
0300
0300
0300
1FE0
1FE0
E31C
E31C
E31C
E300
E300
E300
E31C
E31C
1FE0
1FE0
1FE0
0300
0300
0300
ENDCHAR
STARTCHAR 163
ENCODING 163
SWIDTH 1152 0
DWIDTH 16 0
BBX 14 19 0 3
BITMAP
03E0
03E0
03E0
1C1C
1C1C
1C1C
1C00
1C00
FF00
FF00
FF00
1C00
1C00
1C00
1C1C
1C1C
E3E0
E3E0
E3E0
ENDCHAR
STARTCHAR 164
ENCODING 164
SWIDTH 1152 0
DWIDTH 16 0
BBX 14 13 0 3
BITMAP
E31C
E31C
1CE0
1CE0
1CE0
E01C
E01C
E01C
1CE0
1CE0
E31C
E31C
E31C
ENDCHAR
STARTCHAR 165
ENCODING 165
SWIDTH 1152 0
DWIDTH 16 0
BBX 14 19 0 3
BITMAP
E01C
E01C
E01C
1CE0
1CE0
1CE0
FFFC
FFFC
0300
0300
0300
FFFC
FFFC
FFFC
0300
0300
0300
0300
0300
ENDCHAR
STARTCHAR 166
ENCODING 166
SWIDTH 1152 0
DWIDTH 16 0
BBX 2 19 6 3
BITMAP
C0
C0
C0
C0
C0
C0
C0
C0
00
00
00
C0
C0
C0
C0
C0
C0
C0
C0
ENDCHAR
STARTCHAR 167
ENCODING 167
SWIDTH 1152 0
DWIDTH 16 0
BBX 11 21 3 3
BITMAP
1FE0
1FE0
E000
E000
E000
1F00
1F00
1F00
E0E0
E0E0
E0E0
E0E0
E0E0
1F00
1F00
1F00
00E0
00E0
FF00
FF00
FF00
ENDCHAR
STARTCHAR 168
ENCODING 168
SWIDTH 1152 0
DWIDTH 16 0
BBX 8 2 3 22
BITMAP
E7
E7
ENDCHAR
STARTCHAR 169
ENCODING 169
SWIDTH 1152 0
DWIDTH 16 0
BBX 16 19 0 3
BITMAP
1FFC
1FFC
1FFC
E003
E003
E003
E3E3
E3E3
E303
E303
E303
E3E3
E3E3
E3E3
E003
E003
1FFC
1FFC
1FFC
ENDCHAR
STARTCHAR 170
ENCODING 170
SWIDTH 1152 0
DWIDTH 16 0
BBX 8 13 3 14
BITMAP
1F
1F
1F
E7
E7
1F
1F
1F
00
00
00
FF
FF
ENDCHAR
STARTCHAR 171
ENCODING 171
SWIDTH 1152 0
DWIDTH 16 0
BBX 14 13 0 3
BITMAP
031C
031C
1CE0
1CE0
1CE0
E300
E300
E300
1CE0
1CE0
031C
031C
031C
ENDCHAR
STARTCHAR 172
ENCODING 172
SWIDTH 1152 0
DWIDTH 16 0
BBX 14 8 0 6
BITMAP
FFFC
FFFC
FFFC
001C
001C
001C
001C
001C
ENDCHAR
STARTCHAR 173
ENCODING 173
SWIDTH 1152 0
DWIDTH 16 0
BBX 8 3 3 11
BITMAP
FF
FF
FF
ENDCHAR
STARTCHAR 174
ENCODING 174
SWIDTH 1152 0
DWIDTH 16 0
BBX 16 19 0 3
BITMAP
1FFC
1FFC
1FFC
E003
E003
E003
E3E3
E3E3
E303
E303
E303
E303
E303
E303
E003
E003
1FFC
1FFC
1FFC
ENDCHAR
STARTCHAR 175
ENCODING 175
SWIDTH 1152 0
DWIDTH 16 0
BBX 14 2 0 22
BITMAP
FFFC
FFFC
ENDCHAR
STARTCHAR 176
ENCODING 176
SWIDTH 1152 0
DWIDTH 16 0
BBX 11 11 3 16
BITMAP
1F00
1F00
1F00
E0E0
E0E0
E0E0
E0E0
E0E0
1F00
1F00
1F00
ENDCHAR
STARTCHAR 177
ENCODING 177
SWIDTH 1152 0
DWIDTH 16 0
BBX 14 19 0 3
BITMAP
0300
0300
0300
0300
0300
0300
FFFC
FFFC
0300
0300
0300
0300
0300
0300
0000
0000
FFFC
FFFC
FFFC
ENDCHAR
STARTCHAR 178
ENCODING 178
SWIDTH 1152 0
DWIDTH 16 0
BBX 8 13 3 14
BITMAP
18
18
18
E7
E7
07
07
07
18
18
18
FF
FF
ENDCHAR
STARTCHAR 179
ENCODING 179
SWIDTH 1152 0
DWIDTH 16 0
BBX 8 13 3 14
BITMAP
F8
F8
F8
07
07
18
18
18
07
07
07
F8
F8
ENDCHAR
STARTCHAR 180
ENCODING 180
SWIDTH 1152 0
DWIDTH 16 0
BBX 8 8 3 16
BITMAP
07
07
18
18
18
E0
E0
E0
ENDCHAR
STARTCHAR 181
ENCODING 181
SWIDTH 1152 0
DWIDTH 16 0
BBX 14 18 0 -2
BITMAP
E01C
E01C
E01C
E01C
E01C
E01C
E01C
E01C
E0FC
E0FC
FF1C
FF1C
FF1C
E000
E000
E000
E000
E000
ENDCHAR
STARTCHAR 182
ENCODING 182
SWIDTH 1152 0
DWIDTH 16 0
BBX 14 21 0 3
BITMAP
1FFC
1FFC
FF1C
FF1C
FF1C
FF1C
FF1C
FF1C
FF1C
FF1C
1F1C
1F1C
1F1C
031C
031C
031C
031C
031C
031C
031C
031C
ENDCHAR
STARTCHAR 183
ENCODING 183
SWIDTH 1152 0
DWIDTH 16 0
BBX 5 5 6 11
BITMAP
F8
F8
F8
F8
F8
ENDCHAR
STARTCHAR 184
ENCODING 184
SWIDTH 1152 0
DWIDTH 16 0
BBX 8 5 3 -2
BITMAP
07
07
07
F8
F8
ENDCHAR
STARTCHAR 185
ENCODING 185
SWIDTH 1152 0
DWIDTH 16 0
BBX 8 13 3 14
BITMAP
18
18
18
F8
F8
18
18
18
18
18
18
FF
FF
ENDCHAR
STARTCHAR 186
ENCODING 186
SWIDTH 1152 0
DWIDTH 16 0
BBX 8 14 3 16
BITMAP
18
18
18
E7
E7
E7
18
18
00
00
00
FF
FF
FF
ENDCHAR
STARTCHAR 187
ENCODING 187
SWIDTH 1152 0
DWIDTH 16 0
BBX 14 13 0 3
BITMAP
E300
E300
1CE0
1CE0
1CE0
031C
031C
031C
1CE0
1CE0
E300
E300
E300
ENDCHAR
STARTCHAR 188
ENCODING 188
SWIDTH 1152 0
DWIDTH 16 0
BBX 14 27 0 3
BITMAP
1C00
1C00
1C00
FC00
FC00
FC00
1C1C
1C1C
1CE0
1CE0
1CE0
1F00
1F00
1F00
1CE0
1CE0
E3E0
E3E0
E3E0
1CE0
1CE0
1CE0
1FFC
1FFC
00E0
00E0
00E0
ENDCHAR
STARTCHAR 189
ENCODING 189
SWIDTH 1152 0
DWIDTH 16 0
BBX 14 27 0 3
BITMAP
1C00
1C00
1C00
FC00
FC00
FC00
1C1C
1C1C
1CE0
1CE0
1CE0
1F00
1F00
1F00
1CE0
1CE0
E31C
E31C
E31C
001C
001C
001C
00E0
00E0
03FC
03FC
03FC
ENDCHAR
STARTCHAR 190
ENCODING 190
SWIDTH 1152 0
DWIDTH 16 0
BBX 14 27 0 3
BITMAP
FC00
FC00
FC00
0300
0300
0300
1C1C
1C1C
03E0
03E0
03E0
FF00
FF00
FF00
1CE0
1CE0
E3E0
E3E0
E3E0
1CE0
1CE0
1CE0
1FFC
1FFC
00E0
00E0
00E0
ENDCHAR
STARTCHAR 191
ENCODING 191
SWIDTH 1152 0
DWIDTH 16 0
BBX 14 19 0 3
BITMAP
0300
0300
0300
0000
0000
0000
0300
0300
0300
0300
0300
1C00
1C00
1C00
E01C
E01C
1FE0
1FE0
1FE0
ENDCHAR
STARTCHAR 192
ENCODING 192
SWIDTH 1152 0
DWIDTH 16 0
BBX 14 27 0 3
BITMAP
1C00
1C00
1C00
0300
0300
0300
0000
0000
1FE0
1FE0
1FE0
E01C
E01C
E01C
E01C
E01C
FFFC
FFFC
FFFC
E01C
E01C
E01C
E01C
E01C
E01C
E01C
E01C
ENDCHAR
STARTCHAR 193
ENCODING 193
SWIDTH 1152 0
DWIDTH 16 0
BBX 14 27 0 3
BITMAP
00E0
00E0
00E0
0300
0300
0300
0000
0000
1FE0
1FE0
1FE0
E01C
E01C
E01C
E01C
E01C
FFFC
FFFC
FFFC
E01C
E01C
E01C
E01C
E01C
E01C
E01C
E01C
ENDCHAR
STARTCHAR 194
ENCODING 194
SWIDTH 1152 0
DWIDTH 16 0
BBX 14 27 0 3
BITMAP
0300
0300
0300
1CE0
1CE0
1CE0
0000
0000
1FE0
1FE0
1FE0
E01C
E01C
E01C
E01C
E01C
FFFC
FFFC
FFFC
E01C
E01C
E01C
E01C
E01C
E01C
E01C
E01C
ENDCHAR
STARTCHAR 195
ENCODING 195
SWIDTH 1152 0
DWIDTH 16 0
BBX 14 27 0 3
BITMAP
1F1C
1F1C
1F1C
E3E0
E3E0
E3E0
0000
0000
1FE0
1FE0
1FE0
E01C
E01C
E01C
E01C
E01C
FFFC
FFFC
FFFC
E01C
E01C
E01C
E01C
E01C
E01C
E01C
E01C
ENDCHAR
STARTCHAR 196
ENCODING 196
SWIDTH 1152 0
DWIDTH 16 0
BBX 14 24 0 3
BITMAP
1CE0
1CE0
1CE0
0000
0000
1FE0
1FE0
1FE0
E01C
E01C
E01C
E01C
E01C
FFFC
FFFC
FFFC
E01C
E01C
E01C
E01C
E01C
E01C
E01C
E01C
ENDCHAR
STARTCHAR 197
ENCODING 197
SWIDTH 1152 0
DWIDTH 16 0
BBX 14 27 0 3
BITMAP
0300
0300
0300
1CE0
1CE0
1CE0
0300
0300
1FE0
1FE0
1FE0
E01C
E01C
E01C
E01C
E01C
FFFC
FFFC
FFFC
E01C
E01C
E01C
E01C
E01C
E01C
E01C
E01C
ENDCHAR
STARTCHAR 198
ENCODING 198
SWIDTH 1152 0
DWIDTH 16 0
BBX 14 19 0 3
BITMAP
1FFC
1FFC
1FFC
E300
E300
E300
E300
E300
FFE0
FFE0
FFE0
E300
E300
E300
E300
E300
E3FC
E3FC
E3FC
ENDCHAR
STARTCHAR 199
ENCODING 199
SWIDTH 1152 0
DWIDTH 16 0
BBX 14 24 0 -2
BITMAP
1FE0
1FE0
1FE0
E01C
E01C
E01C
E000
E000
E000
E000
E000
E000
E000
E000
E01C
E01C
1FE0
1FE0
1FE0
00E0
00E0
00E0
1F00
1F00
ENDCHAR
STARTCHAR 200
ENCODING 200
SWIDTH 1152 0
DWIDTH 16 0
BBX 14 27 0 3
BITMAP
1C00
1C00
1C00
0300
0300
0300
0000
0000
FFFC
FFFC
FFFC
E000
E000
E000
E000
E000
FFE0
FFE0
FFE0
E000
E000
E000
E000
E000
FFFC
FFFC
FFFC
ENDCHAR
STARTCHAR 201
ENCODING 201
SWIDTH 1152 0
DWIDTH 16 0
BBX 14 27 0 3
BITMAP
00E0
00E0
00E0
0300
0300
0300
0000
0000
FFFC
FFFC
FFFC
E000
E000
E000
E000
E000
FFE0
FFE0
FFE0
E000
E000
E000
E000
E000
FFFC
FFFC
FFFC
ENDCHAR
STARTCHAR 202
ENCODING 202
SWIDTH 1152 0
DWIDTH 16 0
BBX 14 27 0 3
BITMAP
0300
0300
0300
1CE0
1CE0
1CE0
0000
0000
FFFC
FFFC
FFFC
E000
E000
E000
E000
E000
FFE0
FFE0
FFE0
E000
E000
E000
E000
E000
FFFC
FFFC
FFFC
ENDCHAR
STARTCHAR 203
ENCODING 203
SWIDTH 1152 0
DWIDTH 16 0
BBX 14 24 0 3
BITMAP
1CE0
1CE0
1CE0
0000
0000
FFFC
FFFC
FFFC
E000
E000
E000
E000
E000
FFE0
FFE0
FFE0
E000
E000
E000
E000
E000
FFFC
FFFC
FFFC
ENDCHAR
STARTCHAR 204
ENCODING 204
SWIDTH 1152 0
DWIDTH 16 0
BBX 8 27 3 3
BITMAP
E0
E0
E0
18
18
18
00
00
FF
FF
FF
18
18
18
18
18
18
18
18
18
18
18
18
18
FF
FF
FF
ENDCHAR
STARTCHAR 205
ENCODING 205
SWIDTH 1152 0
DWIDTH 16 0
BBX 8 27 3 3
BITMAP
07
07
07
18
18
18
00
00
FF
FF
FF
18
18
18
18
18
18
18
18
18
18
18
18
18
FF
FF
FF
ENDCHAR
STARTCHAR 206
ENCODING 206
SWIDTH 1152 0
DWIDTH 16 0
BBX 8 27 3 3
BITMAP
18
18
18
E7
E7
E7
00
00
FF
FF
FF
18
18
18
18
18
18
18
18
18
18
18
18
18
FF
FF
FF
ENDCHAR
STARTCHAR 207
ENCODING 207
SWIDTH 1152 0
DWIDTH 16 0
BBX 8 24 3 3
BITMAP
E7
E7
E7
00
00
FF
FF
FF
18
18
18
18
18
18
18
18
18
18
18
18
18
FF
FF
FF
ENDCHAR
STARTCHAR 208
ENCODING 208
SWIDTH 1152 0
DWIDTH 16 0
BBX 14 19 0 3
BITMAP
1FE0
1FE0
1FE0
1C1C
1C1C
1C1C
1C1C
1C1C
FF1C
FF1C
FF1C
1C1C
1C1C
1C1C
1C1C
1C1C
1FE0
1FE0
1FE0
ENDCHAR
STARTCHAR 209
ENCODING 209
SWIDTH 1152 0
DWIDTH 16 0
BBX 14 27 0 3
BITMAP
1F1C
1F1C
1F1C
E3E0
E3E0
E3E0
0000
0000
E01C
E01C
E01C
E01C
E01C
E01C
FC1C
FC1C
E31C
E31C
E31C
E0FC
E0FC
E0FC
E01C
E01C
E01C
E01C
E01C
ENDCHAR
STARTCHAR 210
ENCODING 210
SWIDTH 1152 0
DWIDTH 16 0
BBX 14 27 0 3
BITMAP
1C00
1C00
1C00
0300
0300
0300
0000
0000
1FE0
1FE0
1FE0
E01C
E01C
E01C
E01C
E01C
E01C
E01C
E01C
E01C
E01C
E01C
E01C
E01C
1FE0
1FE0
1FE0
ENDCHAR
STARTCHAR 211
ENCODING 211
SWIDTH 1152 0
DWIDTH 16 0
BBX 14 27 0 3
BITMAP
00E0
00E0
00E0
0300
0300
0300
0000
0000
1FE0
1FE0
1FE0
E01C
E01C
E01C
E01C
E01C
E01C
E01C
E01C
E01C
E01C
E01C
E01C
E01C
1FE0
1FE0
1FE0
ENDCHAR
STARTCHAR 212
ENCODING 212
SWIDTH 1152 0
DWIDTH 16 0
BBX 14 27 0 3
BITMAP
0300
0300
0300
1CE0
1CE0
1CE0
0000
0000
1FE0
1FE0
1FE0
E01C
E01C
E01C
E01C
E01C
E01C
E01C
E01C
E01C
E01C
E01C
E01C
E01C
1FE0
1FE0
1FE0
ENDCHAR
STARTCHAR 213
ENCODING 213
SWIDTH 1152 0
DWIDTH 16 0
BBX 14 27 0 3
BITMAP
1F1C
1F1C
1F1C
E3E0
E3E0
E3E0
0000
0000
1FE0
1FE0
1FE0
E01C
E01C
E01C
E01C
E01C
E01C
E01C
E01C
E01C
E01C
E01C
E01C
E01C
1FE0
1FE0
1FE0
ENDCHAR
STARTCHAR 214
ENCODING 214
SWIDTH 1152 0
DWIDTH 16 0
BBX 14 24 0 3
BITMAP
1CE0
1CE0
1CE0
0000
0000
1FE0
1FE0
1FE0
E01C
E01C
E01C
E01C
E01C
E01C
E01C
E01C
E01C
E01C
E01C
E01C
E01C
1FE0
1FE0
1FE0
ENDCHAR
STARTCHAR 215
ENCODING 215
SWIDTH 1152 0
DWIDTH 16 0
BBX 14 13 0 6
BITMAP
E01C
E01C
E01C
1CE0
1CE0
0300
0300
0300
1CE0
1CE0
1CE0
E01C
E01C
ENDCHAR
STARTCHAR 216
ENCODING 216
SWIDTH 1152 0
DWIDTH 16 0
BBX 14 24 0 0
BITMAP
001C
001C
1FE0
1FE0
1FE0
E0FC
E0FC
E0FC
E31C
E31C
E31C
E31C
E31C
E31C
E31C
E31C
FC1C
FC1C
1FE0
1FE0
1FE0
E000
E000
E000
ENDCHAR
STARTCHAR 217
ENCODING 217
SWIDTH 1152 0
DWIDTH 16 0
BBX 14 27 0 3
BITMAP
1C00
1C00
1C00
0300
0300
0300
0000
0000
E01C
E01C
E01C
E01C
E01C
E01C
E01C
E01C
E01C
E01C
E01C
E01C
E01C
E01C
E01C
E01C
1FE0
1FE0
1FE0
ENDCHAR
STARTCHAR 218
ENCODING 218
SWIDTH 1152 0
DWIDTH 16 0
BBX 14 27 0 3
BITMAP
00E0
00E0
00E0
0300
0300
0300
0000
0000
E01C
E01C
E01C
E01C
E01C
E01C
E01C
E01C
E01C
E01C
E01C
E01C
E01C
E01C
E01C
E01C
1FE0
1FE0
1FE0
ENDCHAR
STARTCHAR 219
ENCODING 219
SWIDTH 1152 0
DWIDTH 16 0
BBX 14 27 0 3
BITMAP
0300
0300
0300
1CE0
1CE0
1CE0
0000
0000
E01C
E01C
E01C
E01C
E01C
E01C
E01C
E01C
E01C
E01C
E01C
E01C
E01C
E01C
E01C
E01C
1FE0
1FE0
1FE0
ENDCHAR
STARTCHAR 220
ENCODING 220
SWIDTH 1152 0
DWIDTH 16 0
BBX 14 24 0 3
BITMAP
1CE0
1CE0
1CE0
0000
0000
E01C
E01C
E01C
E01C
E01C
E01C
E01C
E01C
E01C
E01C
E01C
E01C
E01C
E01C
E01C
E01C
1FE0
1FE0
1FE0
ENDCHAR
STARTCHAR 221
ENCODING 221
SWIDTH 1152 0
DWIDTH 16 0
BBX 14 27 0 3
BITMAP
00E0
00E0
00E0
0300
0300
0300
0000
0000
E01C
E01C
E01C
E01C
E01C
E01C
1CE0
1CE0
0300
0300
0300
0300
0300
0300
0300
0300
0300
0300
0300
ENDCHAR
STARTCHAR 222
ENCODING 222
SWIDTH 1152 0
DWIDTH 16 0
BBX 11 19 3 3
BITMAP
E000
E000
E000
FF00
FF00
FF00
E0E0
E0E0
E0E0
E0E0
E0E0
E0E0
E0E0
E0E0
FF00
FF00
E000
E000
E000
ENDCHAR
STARTCHAR 223
ENCODING 223
SWIDTH 1152 0
DWIDTH 16 0
BBX 14 19 0 3
BITMAP
1FE0
1FE0
1FE0
E01C
E01C
E01C
E0E0
E0E0
E300
E300
E300
E0E0
E0E0
E0E0
E01C
E01C
E3E0
E3E0
E3E0
ENDCHAR
STARTCHAR 224
ENCODING 224
SWIDTH 1152 0
DWIDTH 16 0
BBX 14 21 0 3
BITMAP
1C00
1C00
0300
0300
0300
0000
0000
0000
1FE0
1FE0
001C
001C
001C
1FFC
1FFC
1FFC
E01C
E01C
1FFC
1FFC
1FFC
ENDCHAR
STARTCHAR 225
ENCODING 225
SWIDTH 1152 0
DWIDTH 16 0
BBX 14 21 0 3
BITMAP
00E0
00E0
0300
0300
0300
0000
0000
0000
1FE0
1FE0
001C
001C
001C
1FFC
1FFC
1FFC
E01C
E01C
1FFC
1FFC
1FFC
ENDCHAR
STARTCHAR 226
ENCODING 226
SWIDTH 1152 0
DWIDTH 16 0
BBX 14 21 0 3
BITMAP
0300
0300
1CE0
1CE0
1CE0
0000
0000
0000
1FE0
1FE0
001C
001C
001C
1FFC
1FFC
1FFC
E01C
E01C
1FFC
1FFC
1FFC
ENDCHAR
STARTCHAR 227
ENCODING 227
SWIDTH 1152 0
DWIDTH 16 0
BBX 14 21 0 3
BITMAP
1F1C
1F1C
E3E0
E3E0
E3E0
0000
0000
0000
1FE0
1FE0
001C
001C
001C
1FFC
1FFC
1FFC
E01C
E01C
1FFC
1FFC
1FFC
ENDCHAR
STARTCHAR 228
ENCODING 228
SWIDTH 1152 0
DWIDTH 16 0
BBX 14 19 0 3
BITMAP
1CE0
1CE0
1CE0
0000
0000
0000
1FE0
1FE0
001C
001C
001C
1FFC
1FFC
1FFC
E01C
E01C
1FFC
1FFC
1FFC
ENDCHAR
STARTCHAR 229
ENCODING 229
SWIDTH 1152 0
DWIDTH 16 0
BBX 14 21 0 3
BITMAP
0300
0300
1CE0
1CE0
1CE0
0300
0300
0300
1FE0
1FE0
001C
001C
001C
1FFC
1FFC
1FFC
E01C
E01C
1FFC
1FFC
1FFC
ENDCHAR
STARTCHAR 230
ENCODING 230
SWIDTH 1152 0
DWIDTH 16 0
BBX 14 13 0 3
BITMAP
1FE0
1FE0
031C
031C
031C
1FE0
1FE0
1FE0
E300
E300
1FFC
1FFC
1FFC
ENDCHAR
STARTCHAR 231
ENCODING 231
SWIDTH 1152 0
DWIDTH 16 0
BBX 14 18 0 -2
BITMAP
1FE0
1FE0
E01C
E01C
E01C
E000
E000
E000
E01C
E01C
1FE0
1FE0
1FE0
00E0
00E0
00E0
1F00
1F00
ENDCHAR
STARTCHAR 232
ENCODING 232
SWIDTH 1152 0
DWIDTH 16 0
BBX 14 21 0 3
BITMAP
1C00
1C00
0300
0300
0300
0000
0000
0000
1FE0
1FE0
E01C
E01C
E01C
FFE0
FFE0
FFE0
E000
E000
1FE0
1FE0
1FE0
ENDCHAR
STARTCHAR 233
ENCODING 233
SWIDTH 1152 0
DWIDTH 16 0
BBX 14 21 0 3
BITMAP
00E0
00E0
0300
0300
0300
0000
0000
0000
1FE0
1FE0
E01C
E01C
E01C
FFE0
FFE0
FFE0
E000
E000
1FE0
1FE0
1FE0
ENDCHAR
STARTCHAR 234
ENCODING 234
SWIDTH 1152 0
DWIDTH 16 0
BBX 14 21 0 3
BITMAP
0300
0300
1CE0
1CE0
1CE0
0000
0000
0000
1FE0
1FE0
E01C
E01C
E01C
FFE0
FFE0
FFE0
E000
E000
1FE0
1FE0
1FE0
ENDCHAR
STARTCHAR 235
ENCODING 235
SWIDTH 1152 0
DWIDTH 16 0
BBX 14 19 0 3
BITMAP
1CE0
1CE0
1CE0
0000
0000
0000
1FE0
1FE0
E01C
E01C
E01C
FFE0
FFE0
FFE0
E000
E000
1FE0
1FE0
1FE0
ENDCHAR
STARTCHAR 236
ENCODING 236
SWIDTH 1152 0
DWIDTH 16 0
BBX 8 21 3 3
BITMAP
E0
E0
18
18
18
00
00
00
F8
F8
18
18
18
18
18
18
18
18
FF
FF
FF
ENDCHAR
STARTCHAR 237
ENCODING 237
SWIDTH 1152 0
DWIDTH 16 0
BBX 8 21 3 3
BITMAP
07
07
18
18
18
00
00
00
F8
F8
18
18
18
18
18
18
18
18
FF
FF
FF
ENDCHAR
STARTCHAR 238
ENCODING 238
SWIDTH 1152 0
DWIDTH 16 0
BBX 8 21 3 3
BITMAP
18
18
E7
E7
E7
00
00
00
F8
F8
18
18
18
18
18
18
18
18
FF
FF
FF
ENDCHAR
STARTCHAR 239
ENCODING 239
SWIDTH 1152 0
DWIDTH 16 0
BBX 8 19 3 3
BITMAP
E7
E7
E7
00
00
00
F8
F8
18
18
18
18
18
18
18
18
FF
FF
FF
ENDCHAR
STARTCHAR 240
ENCODING 240
SWIDTH 1152 0
DWIDTH 16 0
BBX 14 24 0 3
BITMAP
1CE0
1CE0
1CE0
0300
0300
1CE0
1CE0
1CE0
001C
001C
001C
1FFC
1FFC
E01C
E01C
E01C
E01C
E01C
E01C
E01C
E01C
1FE0
1FE0
1FE0
ENDCHAR
STARTCHAR 241
ENCODING 241
SWIDTH 1152 0
DWIDTH 16 0
BBX 14 21 0 3
BITMAP
1F1C
1F1C
E3E0
E3E0
E3E0
0000
0000
0000
E3E0
E3E0
FC1C
FC1C
FC1C
E01C
E01C
E01C
E01C
E01C
E01C
E01C
E01C
ENDCHAR
STARTCHAR 242
ENCODING 242
SWIDTH 1152 0
DWIDTH 16 0
BBX 14 21 0 3
BITMAP
1C00
1C00
0300
0300
0300
0000
0000
0000
1FE0
1FE0
E01C
E01C
E01C
E01C
E01C
E01C
E01C
E01C
1FE0
1FE0
1FE0
ENDCHAR
STARTCHAR 243
ENCODING 243
SWIDTH 1152 0
DWIDTH 16 0
BBX 14 21 0 3
BITMAP
00E0
00E0
0300
0300
0300
0000
0000
0000
1FE0
1FE0
E01C
E01C
E01C
E01C
E01C
E01C
E01C
E01C
1FE0
1FE0
1FE0
ENDCHAR
STARTCHAR 244
ENCODING 244
SWIDTH 1152 0
DWIDTH 16 0
BBX 14 21 0 3
BITMAP
0300
0300
1CE0
1CE0
1CE0
0000
0000
0000
1FE0
1FE0
E01C
E01C
E01C
E01C
E01C
E01C
E01C
E01C
1FE0
1FE0
1FE0
ENDCHAR
STARTCHAR 245
ENCODING 245
SWIDTH 1152 0
DWIDTH 16 0
BBX 14 21 0 3
BITMAP
1F1C
1F1C
E3E0
E3E0
E3E0
0000
0000
0000
1FE0
1FE0
E01C
E01C
E01C
E01C
E01C
E01C
E01C
E01C
1FE0
1FE0
1FE0
ENDCHAR
STARTCHAR 246
ENCODING 246
SWIDTH 1152 0
DWIDTH 16 0
BBX 14 19 0 3
BITMAP
1CE0
1CE0
1CE0
0000
0000
0000
1FE0
1FE0
E01C
E01C
E01C
E01C
E01C
E01C
E01C
E01C
1FE0
1FE0
1FE0
ENDCHAR
STARTCHAR 247
ENCODING 247
SWIDTH 1152 0
DWIDTH 16 0
BBX 14 13 0 6
BITMAP
0300
0300
0300
0000
0000
FFFC
FFFC
FFFC
0000
0000
0000
0300
0300
ENDCHAR
STARTCHAR 248
ENCODING 248
SWIDTH 1152 0
DWIDTH 16 0
BBX 14 13 0 3
BITMAP
1FFC
1FFC
E0FC
E0FC
E0FC
E31C
E31C
E31C
FC1C
FC1C
FFE0
FFE0
FFE0
ENDCHAR
STARTCHAR 249
ENCODING 249
SWIDTH 1152 0
DWIDTH 16 0
BBX 14 21 0 3
BITMAP
1C00
1C00
0300
0300
0300
0000
0000
0000
E01C
E01C
E01C
E01C
E01C
E01C
E01C
E01C
E01C
E01C
1FE0
1FE0
1FE0
ENDCHAR
STARTCHAR 250
ENCODING 250
SWIDTH 1152 0
DWIDTH 16 0
BBX 14 21 0 3
BITMAP
00E0
00E0
0300
0300
0300
0000
0000
0000
E01C
E01C
E01C
E01C
E01C
E01C
E01C
E01C
E01C
E01C
1FE0
1FE0
1FE0
ENDCHAR
STARTCHAR 251
ENCODING 251
SWIDTH 1152 0
DWIDTH 16 0
BBX 14 21 0 3
BITMAP
0300
0300
1CE0
1CE0
1CE0
0000
0000
0000
E01C
E01C
E01C
E01C
E01C
E01C
E01C
E01C
E01C
E01C
1FE0
1FE0
1FE0
ENDCHAR
STARTCHAR 252
ENCODING 252
SWIDTH 1152 0
DWIDTH 16 0
BBX 14 19 0 3
BITMAP
1CE0
1CE0
1CE0
0000
0000
0000
E01C
E01C
E01C
E01C
E01C
E01C
E01C
E01C
E01C
E01C
1FE0
1FE0
1FE0
ENDCHAR
STARTCHAR 253
ENCODING 253
SWIDTH 1152 0
DWIDTH 16 0
BBX 14 26 0 -2
BITMAP
00E0
00E0
0300
0300
0300
0000
0000
0000
E01C
E01C
E01C
E01C
E01C
E01C
E01C
E01C
1CE0
1CE0
0300
0300
0300
1C00
1C00
1C00
E000
E000
ENDCHAR
STARTCHAR 254
ENCODING 254
SWIDTH 1152 0
DWIDTH 16 0
BBX 14 24 0 -2
BITMAP
E000
E000
E000
E000
E000
E000
FFE0
FFE0
E01C
E01C
E01C
E01C
E01C
E01C
E01C
E01C
FFE0
FFE0
FFE0
E000
E000
E000
E000
E000
ENDCHAR
STARTCHAR 255
ENCODING 255
SWIDTH 1152 0
DWIDTH 16 0
BBX 14 24 0 -2
BITMAP
1CE0
1CE0
1CE0
0000
0000
0000
E01C
E01C
E01C
E01C
E01C
E01C
E01C
E01C
1CE0
1CE0
0300
0300
0300
1C00
1C00
1C00
E000
E000
ENDCHAR
ENDFONT
